<svg xmlns="http://www.w3.org/2000/svg" xmlns:xlink="http://www.w3.org/1999/xlink" viewBox="0 0 512 512"><defs><linearGradient id="ewbvbna" x1="99.5" x2="232.6" y1="30.7" y2="261.4" gradientUnits="userSpaceOnUse"><stop offset="0" stop-color="#f3f7fe"/><stop offset=".5" stop-color="#f3f7fe"/><stop offset="1" stop-color="#deeafb"/></linearGradient><linearGradient id="ewbvbnb" x1="1381.3" x2="1399.5" y1="-1144.7" y2="-1097.4" gradientTransform="rotate(-9 8002.567 8233.063)" gradientUnits="userSpaceOnUse"><stop offset="0" stop-color="#0b65ed"/><stop offset=".5" stop-color="#0a5ad4"/><stop offset="1" stop-color="#0950bc"/></linearGradient><linearGradient xlink:href="#ewbvbnb" id="ewbvbnc" x1="1428.4" x2="1446.6" y1="-1084.7" y2="-1037.4" gradientTransform="rotate(-9 8009.537 8233.037)"/><linearGradient xlink:href="#ewbvbnb" id="ewbvbnd" x1="1489.3" x2="1507.5" y1="-1111.6" y2="-1064.3" gradientTransform="rotate(-9 8016.566 8233.078)"/><symbol id="ewbvbne" viewBox="0 0 350 222"><path fill="url(#ewbvbna)" stroke="#e6effc" stroke-miterlimit="10" stroke-width="6" d="m291 107-2.5.1A83.9 83.9 0 00135.6 43 56 56 0 0051 91a56.6 56.6 0 00.8 9A60 60 0 0063 219l4-.2v.2h224a56 56 0 000-112Z"/></symbol><symbol id="ewbvbnf" viewBox="0 0 129 110"><path fill="url(#ewbvbnb)" stroke="#0a5ad4" stroke-miterlimit="10" d="M8.5 56.5a8 8 0 01-8-8v-40a8 8 0 0116 0v40a8 8 0 01-8 8Z"/><path fill="url(#ewbvbnc)" stroke="#0a5ad4" stroke-miterlimit="10" d="M64.5 109.5a8 8 0 01-8-8v-40a8 8 0 0116 0v40a8 8 0 01-8 8Z"/><path fill="url(#ewbvbnd)" stroke="#0a5ad4" stroke-miterlimit="10" d="M120.5 74.5a8 8 0 01-8-8v-40a8 8 0 0116 0v40a8 8 0 01-8 8Z"/></symbol></defs><use xlink:href="#ewbvbne" width="350" height="222" transform="translate(81 145)"/><use xlink:href="#ewbvbnf" width="129" height="110" transform="translate(191.5 343.5)"/></svg>